HIERARCHY
ROOT root
{
	OFFSET 0.000000 0.000000 0.000000
	CHANNELS 6 Xposition Yposition Zposition Zrotation Yrotation Xrotation
	JOINT lhip
	{
		OFFSET 0.058581 -0.082280 -0.017664
		CHANNELS 3 Zrotation Yrotation Xrotation
		JOINT lknee
		{
			OFFSET 0.043451 -0.386469 0.008037
			CHANNELS 3 Zrotation Yrotation Xrotation
			JOINT lankle
			{
				OFFSET -0.014790 -0.426874 -0.037428
				CHANNELS 3 Zrotation Yrotation Xrotation
				JOINT ltoe
				{
					OFFSET 0.041054 -0.060286 0.122042
					CHANNELS 3 Zrotation Yrotation Xrotation
					End Site
					{
						OFFSET 0.000000 0.000000 0.000000
					}
				}
			}
		}
	}
	JOINT rhip
	{
		OFFSET -0.060310 -0.090513 -0.013543
		CHANNELS 3 Zrotation Yrotation Xrotation
		JOINT rknee
		{
			OFFSET -0.043257 -0.383688 -0.004843
			CHANNELS 3 Zrotation Yrotation Xrotation
			JOINT rankle
			{
				OFFSET 0.019056 -0.420046 -0.034562
				CHANNELS 3 Zrotation Yrotation Xrotation
				JOINT rtoe
				{
					OFFSET -0.034840 -0.062106 0.130323
					CHANNELS 3 Zrotation Yrotation Xrotation
					End Site
					{
						OFFSET 0.000000 0.000000 0.000000
					}
				}
			}
		}
	}
	JOINT lowerback
	{
		OFFSET 0.004439 0.124404 -0.038385
		CHANNELS 3 Zrotation Yrotation Xrotation
		JOINT upperback
		{
			OFFSET 0.004488 0.137956 0.026820
			CHANNELS 3 Zrotation Yrotation Xrotation
			JOINT chest
			{
				OFFSET -0.002265 0.056032 0.002855
				CHANNELS 3 Zrotation Yrotation Xrotation
				JOINT lowerneck
				{
					OFFSET -0.013390 0.211636 -0.033468
					CHANNELS 3 Zrotation Yrotation Xrotation
					JOINT upperneck
					{
						OFFSET 0.010113 0.088937 0.050410
						CHANNELS 3 Zrotation Yrotation Xrotation
						End Site
						{
							OFFSET 0.000000 0.000000 0.000000
						}
					}
				}
				JOINT lclavicle
				{
					OFFSET 0.071702 0.114000 -0.018898
					CHANNELS 3 Zrotation Yrotation Xrotation
					JOINT lshoulder
					{
						OFFSET 0.122921 0.045205 -0.019046
						CHANNELS 3 Zrotation Yrotation Xrotation
						JOINT lelbow
						{
							OFFSET 0.255332 -0.015649 -0.022946
							CHANNELS 3 Zrotation Yrotation Xrotation
							JOINT lwrist
							{
								OFFSET 0.265709 0.012698 -0.007375
								CHANNELS 3 Zrotation Yrotation Xrotation
								End Site
								{
									OFFSET 0.000000 0.000000 0.000000
								}
							}
						}
					}
				}
				JOINT rclavicle
				{
					OFFSET -0.082954 0.112472 -0.023707
					CHANNELS 3 Zrotation Yrotation Xrotation
					JOINT rshoulder
					{
						OFFSET -0.113228 0.046853 -0.008472
						CHANNELS 3 Zrotation Yrotation Xrotation
						JOINT relbow
						{
							OFFSET -0.260127 -0.014369 -0.031269
							CHANNELS 3 Zrotation Yrotation Xrotation
							JOINT rwrist
							{
								OFFSET -0.269108 0.006794 -0.006027
								CHANNELS 3 Zrotation Yrotation Xrotation
								End Site
								{
									OFFSET 0.000000 0.000000 0.000000
								}
							}
						}
					}
				}
			}
		}
	}
}
MOTION
Frames: 17
Frame Time: 0.033333
-0.006303 0.674327 0.893633 88.052268 -2.477627 71.175769 8.372407 3.192645 -3.042307 -8.182126 -1.842882 44.746675 3.308779 15.063500 -30.271096 0.000000 -0.000000 0.000000 -8.952378 -4.853915 -5.342524 1.284162 0.079835 49.606558 1.582791 -16.453159 -32.565909 0.000000 -0.000000 0.000000 -1.304089 2.192495 10.694421 1.071322 -4.453567 3.044003 -0.076171 1.068139 -0.040706 1.318700 2.067158 -4.314894 1.183359 -5.250414 3.303053 0.885963 -32.886074 -9.888922 -19.099907 -29.640009 -3.584407 13.032881 -30.970471 -2.943996 8.919243 -8.090972 -5.151857 3.749298 34.969165 -8.255603 16.399557 37.916277 -9.623919 -18.521663 23.675670 -2.778442 4.505488 6.448041 12.525251 
-0.004725 0.673920 0.892763 88.117476 -2.497304 70.913961 8.309887 3.091788 -2.781670 -7.883110 -1.760415 45.113594 3.267427 14.854399 -30.608672 0.000000 -0.000000 0.000000 -9.062460 -4.927721 -5.176211 1.091455 -0.430737 50.518007 1.570628 -16.085826 -32.204762 0.000000 -0.000000 0.000000 -1.468710 2.366828 10.775014 1.233360 -4.515195 3.282070 -0.017952 1.078915 -0.415119 1.353231 2.078681 -3.747807 1.117330 -5.235712 2.808397 0.232786 -33.278370 -9.469889 -18.499360 -29.380986 -3.799598 12.916285 -30.694807 -3.239134 7.878706 -8.438560 -4.006121 3.852414 34.950107 -8.302864 16.436379 37.469490 -9.340444 -18.518594 24.373300 -2.492679 5.577883 6.417536 11.341175 
-0.003395 0.673235 0.891394 88.116591 -2.507767 70.831670 8.381872 3.050109 -2.767462 -7.977899 -1.815649 45.530825 3.298167 15.032934 -30.859167 0.000000 -0.000000 0.000000 -9.044735 -4.883008 -5.121791 1.299185 -0.328264 50.851181 1.648288 -16.359018 -32.405889 0.000000 -0.000000 0.000000 -1.580597 2.448207 10.779918 1.253268 -4.499691 3.250014 0.013624 1.095194 -0.418061 1.494592 2.043170 -3.753841 1.143086 -5.257048 2.785472 0.325360 -33.310043 -9.453251 -18.270869 -29.314499 -3.925922 12.532485 -30.477956 -2.953511 8.373151 -8.336907 -3.675898 3.885019 34.973885 -8.291725 16.271817 37.463028 -9.405506 -18.048172 24.161056 -2.100675 4.782308 6.627504 11.950075 
-0.001304 0.671935 0.890440 88.021221 -2.461296 70.693311 8.558373 2.993431 -2.540520 -8.105911 -1.925786 45.758313 3.190638 15.315853 -31.086493 0.000000 -0.000000 0.000000 -8.881738 -4.880434 -4.877478 1.319505 -0.210491 51.069740 1.581768 -16.439047 -32.683647 0.000000 -0.000000 0.000000 -1.631327 2.545017 10.712144 1.299249 -4.472025 3.266855 0.060433 1.105761 -0.444659 1.568619 2.054730 -3.658295 1.269358 -5.353950 2.637957 0.321927 -33.373589 -9.463402 -18.110277 -29.123875 -3.989074 12.396195 -30.217991 -2.866117 8.856768 -8.357456 -3.392324 3.884198 35.033686 -8.297349 16.308572 37.338743 -9.243053 -17.716266 24.140699 -1.345243 4.180309 6.502532 12.424387 
-0.000020 0.671140 0.890055 88.089511 -2.455011 70.643414 8.615882 2.967132 -2.420924 -8.069064 -1.990989 45.827778 3.170938 15.225936 -31.141361 0.000000 -0.000000 0.000000 -8.902894 -4.831435 -4.726820 1.384248 -0.331959 51.169830 1.550204 -16.465023 -32.687645 0.000000 -0.000000 0.000000 -1.688818 2.521468 10.710498 1.291480 -4.478602 3.170780 0.033486 1.109292 -0.473495 1.652260 1.993622 -3.641000 1.215022 -5.335853 2.787445 0.365675 -33.265890 -9.368624 -18.068543 -29.182119 -3.994577 12.425190 -30.064793 -2.899432 8.933864 -8.728658 -3.487258 3.921051 35.009150 -8.277579 16.495407 37.395891 -9.210340 -17.709192 23.859107 -1.672021 3.908055 7.668976 12.400103 
0.001198 0.670169 0.889551 88.104072 -2.492765 70.580136 8.646347 2.885997 -2.284309 -8.039889 -1.935823 45.888307 3.102769 15.225591 -31.292917 0.000000 -0.000000 0.000000 -8.934683 -4.867951 -4.648123 1.397171 -0.384512 51.323430 1.630367 -16.383343 -32.990269 0.000000 -0.000000 0.000000 -1.786534 2.576947 10.694149 1.268740 -4.488938 3.096616 0.064982 1.052329 -0.463864 1.712148 2.002251 -3.621484 1.272920 -5.321491 2.726447 0.335314 -33.287931 -9.293590 -17.845142 -29.067619 -4.227441 12.567282 -30.026537 -3.076171 8.439232 -8.906746 -3.314163 3.800299 34.946971 -8.398905 16.659344 37.225032 -8.905822 -17.867595 24.158797 -1.224164 4.608830 7.584248 12.027485 
0.002178 0.669011 0.889404 88.129946 -2.497310 70.485120 8.719196 2.927763 -2.190097 -8.213839 -2.178471 46.147956 2.884762 15.064545 -31.435291 0.000000 -0.000000 0.000000 -8.865373 -4.937133 -4.541162 1.373662 -0.369549 51.371584 1.720370 -16.280653 -33.127036 0.000000 -0.000000 0.000000 -1.866500 2.564878 10.697531 1.302301 -4.493683 2.988755 0.045078 0.855875 -0.474161 1.861952 2.222807 -3.549823 1.190045 -5.273258 2.732276 0.137153 -33.448840 -9.123025 -17.326794 -28.981228 -4.761851 12.696160 -29.644815 -2.890139 6.649264 -8.928809 -3.113960 3.438674 34.760106 -8.963126 17.170647 37.992856 -8.450195 -17.768814 23.298617 0.965299 7.258737 5.984945 10.555807 
0.003320 0.668269 0.889406 88.171453 -2.495721 70.572363 8.772207 3.000762 -2.122425 -8.109809 -2.104121 45.942805 3.068074 15.148212 -31.443807 0.000000 -0.000000 0.000000 -8.958811 -5.107602 -4.398940 1.551380 -0.339727 51.226987 1.590595 -16.306481 -33.155238 0.000000 -0.000000 0.000000 -1.786944 2.620922 10.470066 1.236086 -4.529787 3.139471 0.068681 1.025303 -0.521867 1.575545 1.912696 -3.579408 1.238841 -5.239994 2.569375 0.209604 -33.623360 -9.207080 -17.240996 -28.784402 -4.624678 12.469046 -30.053556 -3.319463 8.694835 -8.927506 -2.416742 3.854948 35.187379 -8.346143 16.163041 36.993448 -9.304853 -17.567882 24.136330 -1.208834 4.335395 7.492901 12.523541 
0.004382 0.667667 0.889410 88.207915 -2.451521 70.658599 8.826766 2.945245 -2.108473 -8.143728 -2.190480 45.941718 3.140927 15.217426 -31.469546 0.000000 -0.000000 0.000000 -8.943316 -5.057413 -4.321641 1.615080 -0.483513 51.212236 1.574853 -16.301637 -33.195445 0.000000 -0.000000 0.000000 -1.737776 2.565766 10.321329 1.238728 -4.528657 3.062687 0.044754 1.003682 -0.444346 1.572340 2.113147 -3.407159 1.286297 -5.007182 2.421876 0.497372 -33.216735 -9.305678 -17.640461 -28.951145 -4.469990 12.661828 -30.331796 -3.110775 9.466847 -8.865975 -2.997913 3.509735 34.808699 -8.450556 16.683432 37.191642 -9.038531 -17.805248 24.420134 -1.248971 3.259685 7.991105 12.151325 
0.005445 0.667184 0.889620 88.230581 -2.435083 70.641854 8.869588 2.910408 -1.963181 -8.198863 -2.293671 45.911737 3.110151 15.239537 -31.575634 0.000000 -0.000000 0.000000 -8.955708 -5.075924 -4.103069 1.675026 -0.539399 51.098202 1.544507 -16.339632 -33.273226 0.000000 -0.000000 0.000000 -1.732315 2.559428 10.137369 1.292958 -4.540667 3.239602 0.056929 0.959438 -0.451802 1.552872 2.255792 -3.115814 1.232035 -4.840809 2.285317 0.497875 -33.033871 -9.307676 -17.582535 -28.955983 -4.468529 12.837238 -30.604129 -2.924806 8.961043 -8.865722 -3.224772 3.611334 34.709084 -8.292651 16.500414 37.263150 -9.129587 -17.894732 24.570148 -1.020905 3.693838 7.859791 12.107208 
0.006148 0.666900 0.889682 88.212574 -2.477518 70.644206 8.862803 2.947297 -1.861686 -8.137936 -2.251273 45.786903 3.158336 15.229567 -31.570568 0.000000 -0.000000 0.000000 -8.972112 -5.215610 -4.036590 1.610593 -0.416071 51.050061 1.501979 -16.261627 -33.252672 0.000000 -0.000000 0.000000 -1.722261 2.632895 10.086797 1.312126 -4.563679 3.280089 0.101464 0.997391 -0.518596 1.419742 2.201813 -2.911624 1.253907 -4.743339 2.316880 0.474842 -33.198688 -9.224944 -17.428773 -28.833366 -4.530577 12.906536 -30.552032 -3.072892 9.415156 -8.823768 -2.858653 3.487839 34.792321 -8.383117 16.562964 37.005235 -9.104981 -17.942435 24.656905 -0.817678 3.627924 7.891033 12.412644 
0.006656 0.666732 0.889713 88.266609 -2.477259 70.647055 8.812075 2.908320 -1.858740 -8.234982 -2.537861 46.009292 3.142020 15.171180 -31.568503 0.000000 -0.000000 0.000000 -8.940090 -5.215295 -3.967378 1.653248 -0.333571 50.995292 1.555770 -16.410134 -33.300083 0.000000 -0.000000 0.000000 -1.698714 2.609133 9.980003 1.310021 -4.610838 3.304176 0.100041 1.014195 -0.434560 1.437800 2.163902 -2.774634 1.216721 -4.617849 2.285823 0.518981 -33.188544 -9.252694 -17.214997 -28.883401 -4.687130 12.781660 -30.443379 -3.329959 10.228777 -8.713963 -2.713246 3.553904 34.831633 -8.365206 16.422244 37.073482 -9.240001 -17.616317 24.318705 -1.079126 3.055255 8.319743 12.364937 
0.007233 0.666637 0.889776 88.169321 -2.546947 70.623381 8.802970 3.023971 -1.717765 -8.232342 -2.448897 45.781578 3.114324 15.273909 -31.603093 0.000000 -0.000000 0.000000 -8.949705 -5.263664 -3.969568 1.568446 -0.182993 51.077996 1.563040 -16.333199 -33.279919 0.000000 -0.000000 0.000000 -1.690415 2.585239 10.016555 1.298308 -4.579429 3.302323 0.094000 1.057116 -0.454890 1.426666 2.275698 -2.673009 1.229084 -4.604545 2.333113 0.687541 -33.042986 -9.398172 -17.283242 -28.704413 -4.675774 12.933292 -30.675980 -3.483923 9.945092 -8.424948 -2.706991 3.500757 34.751316 -8.470434 16.493239 37.162540 -9.231022 -17.420720 24.484539 -1.040163 4.083107 7.343076 12.240573 
0.007645 0.666594 0.889689 88.040614 -2.606946 70.637150 8.821451 3.069985 -1.663294 -8.236945 -2.294129 45.796052 3.092641 15.261611 -31.730316 0.000000 -0.000000 0.000000 -8.972731 -5.155521 -3.994782 1.532594 -0.148915 51.108319 1.507668 -16.348858 -33.326259 0.000000 -0.000000 0.000000 -1.694646 2.565643 9.996584 1.334694 -4.562623 3.299486 0.089750 1.106246 -0.396761 1.438396 2.389031 -2.656218 1.118184 -4.651160 2.433726 0.754253 -32.878218 -9.441880 -17.182726 -28.682024 -4.804011 12.840372 -30.644061 -3.225509 9.241032 -8.777515 -2.823234 3.450038 34.607585 -8.424710 16.652516 37.040352 -8.979118 -17.793481 24.982579 -0.628322 4.319523 7.353848 12.650054 
0.007930 0.666711 0.889608 87.928431 -2.600377 70.560666 8.839912 3.051715 -1.506379 -8.308769 -2.329316 45.771442 3.132518 15.375446 -31.724048 0.000000 -0.000000 0.000000 -8.992350 -5.082004 -3.898372 1.636703 -0.147984 51.082167 1.578480 -16.336326 -33.300826 0.000000 -0.000000 0.000000 -1.603850 2.539120 10.058791 1.355649 -4.553241 3.383444 0.065685 1.119725 -0.373752 1.501149 2.401947 -2.555885 1.075620 -4.708861 2.289110 0.848173 -32.773774 -9.514494 -17.101596 -28.609228 -4.851907 12.824004 -30.527602 -3.080909 9.491795 -8.653593 -2.892387 3.350639 34.660398 -8.501206 16.870594 37.326980 -8.867785 -17.650507 24.520684 -0.693674 3.306355 7.548578 12.270323 
0.008146 0.666965 0.889388 87.863441 -2.580443 70.582383 8.866423 3.061731 -1.509018 -8.307846 -2.307339 45.859317 3.136088 15.379999 -31.768623 0.000000 -0.000000 0.000000 -9.022738 -5.084944 -3.940839 1.674313 -0.143989 51.139079 1.601279 -16.257178 -33.352169 0.000000 -0.000000 0.000000 -1.542222 2.522551 10.059810 1.379355 -4.532136 3.382467 0.083288 1.159251 -0.374626 1.517665 2.364278 -2.598283 1.047660 -4.736387 2.498836 1.031409 -32.726766 -9.620823 -17.326645 -28.650668 -4.802807 12.924283 -30.248076 -3.268602 9.649244 -8.517646 -3.166347 3.326737 34.680550 -8.540933 16.873640 37.458162 -9.035825 -17.504003 24.358648 -0.834121 3.515313 7.194529 12.641956 
0.008253 0.667048 0.889125 87.855787 -2.580992 70.505928 8.850254 3.161671 -1.484440 -8.402795 -2.466721 45.843327 3.010483 15.394441 -31.861617 0.000000 -0.000000 0.000000 -9.024090 -5.080670 -3.976256 1.657803 -0.186230 51.174791 1.666134 -16.136165 -33.428017 0.000000 -0.000000 0.000000 -1.578383 2.494417 10.330644 1.454158 -4.554745 3.039341 0.101956 0.996990 -0.390652 1.793656 2.539777 -2.588431 1.018291 -4.757940 2.914357 0.777429 -32.910163 -9.484044 -17.098689 -28.792314 -5.261803 13.066049 -29.241132 -3.208236 9.147532 -8.723130 -2.210097 2.955606 34.462062 -9.037896 17.633500 37.817013 -8.181100 -17.677951 23.802186 1.263430 5.077292 7.230174 10.753798 
